<svg width="637" height="269" viewBox="0 0 637 269" fill="none" xmlns="http://www.w3.org/2000/svg">
<path d="M635.877 265.472H0.920227C0.676168 265.472 0.442104 265.375 0.269528 265.203C0.0969515 265.03 0 264.796 0 264.552C0 264.308 0.0969515 264.074 0.269528 263.901C0.442104 263.729 0.676168 263.632 0.920227 263.632H635.877C636.121 263.632 636.355 263.729 636.527 263.901C636.7 264.074 636.797 264.308 636.797 264.552C636.797 264.796 636.7 265.03 636.527 265.203C636.355 265.375 636.121 265.472 635.877 265.472Z" fill="#CCCCCC"/>
<path d="M573.029 104.983H199.417C197.831 104.983 196.309 105.613 195.188 106.735C194.066 107.857 193.436 109.378 193.436 110.965C193.436 112.551 194.066 114.072 195.188 115.194C196.309 116.316 197.831 116.946 199.417 116.946H210V260.041C210 261.628 210.63 263.149 211.752 264.271C212.873 265.393 214.395 266.023 215.981 266.023C217.568 266.023 219.089 265.393 220.211 264.271C221.333 263.149 221.963 261.628 221.963 260.041L222.054 116.946H549.563V260.041C549.563 261.628 550.194 263.149 551.315 264.271C552.437 265.393 553.959 266.023 555.545 266.023C557.131 266.023 558.653 265.393 559.774 264.271C560.896 263.149 561.526 261.628 561.526 260.041V120.1L563.267 116.946H573.029C574.616 116.946 576.137 116.316 577.259 115.194C578.381 114.072 579.011 112.551 579.011 110.965C579.011 109.378 578.381 107.857 577.259 106.735C576.137 105.613 574.616 104.983 573.029 104.983Z" fill="#CCCCCC"/>
<path d="M406.551 108.113H293.38C291.188 108.111 289.087 107.239 287.538 105.69C285.988 104.14 285.117 102.039 285.114 99.8481V37.5403C285.117 35.349 285.988 33.2481 287.538 31.6986C289.087 30.1491 291.188 29.2775 293.38 29.275H406.551C408.742 29.2775 410.843 30.1491 412.393 31.6986C413.942 33.2481 414.814 35.349 414.816 37.5403V99.8481C414.814 102.039 413.942 104.14 412.393 105.69C410.843 107.239 408.742 108.111 406.551 108.113Z" fill="#3F3D56"/>
<path d="M406.55 35.6363H293.38C292.875 35.6374 292.391 35.8384 292.034 36.1954C291.678 36.5524 291.477 37.0363 291.476 37.5412V99.8497C291.477 100.355 291.678 100.838 292.035 101.195C292.392 101.552 292.875 101.754 293.38 101.755H406.55C407.055 101.754 407.539 101.552 407.896 101.195C408.253 100.838 408.454 100.355 408.455 99.8497V37.5412C408.454 37.0363 408.253 36.5524 407.896 36.1954C407.539 35.8384 407.055 35.6374 406.55 35.6363Z" fill="white"/>
<path d="M359.617 79.7502C359.617 79.7502 346.069 76.6284 338.618 82.3517C331.167 88.075 348.102 101.083 348.102 101.083L359.617 79.7502Z" fill="#2F2E41"/>
<path d="M350.629 73.8517C357.686 73.8517 363.408 68.1303 363.408 61.0725C363.408 54.0147 357.686 48.2932 350.629 48.2932C343.571 48.2932 337.849 54.0147 337.849 61.0725C337.849 68.1303 343.571 73.8517 350.629 73.8517Z" fill="#A0616A"/>
<path d="M340.747 43.1335C341.599 41.6871 342.834 40.5043 344.316 39.7157C345.798 38.9272 347.47 38.5636 349.145 38.665C350.898 38.8848 352.609 39.3637 354.221 40.0858L362.575 43.3445C364.737 44.1878 367.104 45.2207 368.042 47.343C368.913 49.3128 368.263 51.5877 367.606 53.6385L364.48 63.3868C364.134 61.1805 363.54 59.0203 362.709 56.9473C361.865 54.8604 360.339 53.1207 358.38 52.0112C356.21 50.898 353.652 50.9211 351.216 51.0383C347.766 51.2044 344.015 51.6433 341.564 54.0768C340.262 55.4587 339.38 57.1817 339.02 59.0453C338.665 60.899 338.486 62.7821 338.486 64.6694C337.071 62.2375 335.88 59.6825 334.925 57.0358C334.141 55.065 333.693 52.976 333.602 50.8566C333.52 48.7191 334.23 46.6264 335.594 44.9791C336.287 44.1742 337.191 43.5787 338.204 43.2599C339.217 42.9411 340.299 42.9115 341.328 43.1746L340.747 43.1335Z" fill="#2F2E41"/>
<path d="M381.142 90.8315C381.022 90.3999 380.778 90.0133 380.439 89.7203C380.1 89.4272 379.682 89.2408 379.238 89.1843C379.208 89.1638 379.177 89.1454 379.145 89.1291L360.068 78.4377C359.523 78.1324 358.882 78.0489 358.277 78.2046C357.672 78.3603 357.151 78.7431 356.821 79.2734L351.603 87.7212L343.745 79.8624L343.62 79.7375C343.216 79.3341 342.684 79.0859 342.116 79.0362C341.547 78.9865 340.98 79.1386 340.513 79.4657L324.834 90.445C324.806 90.445 324.779 90.4542 324.751 90.4542C324.001 90.5793 323.315 90.9566 322.808 91.5238C322.301 92.091 322.003 92.8141 321.963 93.5738L321.558 101.755H384.17L381.142 90.8315Z" fill="#08476F"/>
<path d="M416.088 100.484H404.008C404.008 100.147 403.874 99.8232 403.635 99.5847C403.397 99.3463 403.073 99.2123 402.736 99.2123H398.921C398.584 99.2123 398.261 99.3463 398.022 99.5847C397.784 99.8232 397.65 100.147 397.65 100.484H393.835C393.835 100.147 393.701 99.8232 393.462 99.5847C393.224 99.3463 392.901 99.2123 392.563 99.2123H388.749C388.411 99.2123 388.088 99.3463 387.849 99.5847C387.611 99.8232 387.477 100.147 387.477 100.484H383.662C383.662 100.147 383.528 99.8232 383.29 99.5847C383.051 99.3463 382.728 99.2123 382.391 99.2123H378.576C378.239 99.2123 377.915 99.3463 377.677 99.5847C377.438 99.8232 377.304 100.147 377.304 100.484H373.489C373.489 100.147 373.356 99.8232 373.117 99.5847C372.879 99.3463 372.555 99.2123 372.218 99.2123H368.403C368.066 99.2123 367.743 99.3463 367.504 99.5847C367.266 99.8232 367.132 100.147 367.132 100.484H363.317C363.317 100.147 363.183 99.8232 362.944 99.5847C362.706 99.3463 362.382 99.2123 362.045 99.2123H358.23C357.893 99.2123 357.57 99.3463 357.331 99.5847C357.093 99.8232 356.959 100.147 356.959 100.484H353.144C353.144 100.147 353.01 99.8232 352.772 99.5847C352.533 99.3463 352.21 99.2123 351.873 99.2123H348.058C347.721 99.2123 347.397 99.3463 347.159 99.5847C346.92 99.8232 346.786 100.147 346.786 100.484H342.971C342.971 100.147 342.837 99.8232 342.599 99.5847C342.361 99.3463 342.037 99.2123 341.7 99.2123H337.885C337.548 99.2123 337.224 99.3463 336.986 99.5847C336.747 99.8232 336.614 100.147 336.614 100.484H332.799C332.799 100.147 332.665 99.8232 332.426 99.5847C332.188 99.3463 331.864 99.2123 331.527 99.2123H327.712C327.375 99.2123 327.052 99.3463 326.813 99.5847C326.575 99.8232 326.441 100.147 326.441 100.484H322.626C322.626 100.147 322.492 99.8232 322.254 99.5847C322.015 99.3463 321.692 99.2123 321.354 99.2123H317.54C317.202 99.2123 316.879 99.3463 316.641 99.5847C316.402 99.8232 316.268 100.147 316.268 100.484H312.453C312.453 100.147 312.319 99.8232 312.081 99.5847C311.842 99.3463 311.519 99.2123 311.182 99.2123H307.367C307.03 99.2123 306.706 99.3463 306.468 99.5847C306.229 99.8232 306.095 100.147 306.095 100.484H302.281C302.281 100.147 302.147 99.8232 301.908 99.5847C301.67 99.3463 301.346 99.2123 301.009 99.2123H297.194C296.857 99.2123 296.534 99.3463 296.295 99.5847C296.057 99.8232 295.923 100.147 295.923 100.484H283.843C282.832 100.485 281.863 100.888 281.149 101.603C280.435 102.319 280.034 103.288 280.034 104.299C280.034 105.309 280.435 106.279 281.149 106.994C281.863 107.709 282.832 108.112 283.843 108.113H416.088C417.099 108.113 418.07 107.712 418.785 106.996C419.501 106.281 419.902 105.31 419.902 104.299C419.902 103.287 419.501 102.317 418.785 101.601C418.07 100.886 417.099 100.484 416.088 100.484Z" fill="#3F3D56"/>
<path d="M264.178 78.3304V103.66H200.717C199.017 103.72 197.322 103.436 195.734 102.826C194.145 102.216 192.696 101.293 191.473 100.111C190.249 98.9289 189.276 97.5127 188.611 95.9466C187.946 94.3805 187.604 92.6967 187.604 90.9954C187.604 89.2941 187.946 87.6102 188.611 86.0441C189.276 84.4781 190.249 83.0619 191.473 81.88C192.696 80.6981 194.145 79.7747 195.734 79.1649C197.322 78.555 199.017 78.2713 200.717 78.3304H264.178Z" fill="#F2F2F2"/>
<path d="M265.737 103.465C265.737 103.724 265.634 103.972 265.451 104.154C265.269 104.337 265.021 104.44 264.762 104.44H199.587C196.047 104.44 192.652 103.034 190.149 100.531C187.646 98.0275 186.24 94.6326 186.24 91.0928C186.24 87.553 187.646 84.1582 190.149 81.6551C192.652 79.1521 196.047 77.7459 199.587 77.7459H264.762C265.021 77.7459 265.269 77.8486 265.451 78.0313C265.634 78.214 265.737 78.4618 265.737 78.7201C265.737 78.9785 265.634 79.2263 265.451 79.409C265.269 79.5917 265.021 79.6943 264.762 79.6943H199.587C196.565 79.6971 193.669 80.8992 191.533 83.0365C189.398 85.1738 188.198 88.0715 188.198 91.0928C188.198 94.1141 189.398 97.0118 191.533 99.1491C193.669 101.286 196.565 102.489 199.587 102.491H264.762C265.021 102.491 265.269 102.594 265.451 102.777C265.634 102.959 265.737 103.207 265.737 103.465Z" fill="#08476F"/>
<path d="M264.178 84.1758H195.982C195.956 84.176 195.931 84.171 195.907 84.1613C195.883 84.1516 195.862 84.1373 195.843 84.1192C195.825 84.1011 195.811 84.0795 195.801 84.0558C195.791 84.0321 195.786 84.0066 195.786 83.9809C195.786 83.9552 195.791 83.9298 195.801 83.906C195.811 83.8823 195.825 83.8608 195.843 83.8427C195.862 83.8246 195.883 83.8103 195.907 83.8005C195.931 83.7908 195.956 83.7859 195.982 83.7861H264.178C264.229 83.7864 264.279 83.8071 264.315 83.8436C264.351 83.8801 264.371 83.9295 264.371 83.9809C264.371 84.0324 264.351 84.0817 264.315 84.1182C264.279 84.1547 264.229 84.1754 264.178 84.1758Z" fill="#CCCCCC"/>
<path d="M264.178 88.8521H195.982C195.956 88.8523 195.931 88.8474 195.907 88.8377C195.883 88.8279 195.862 88.8136 195.843 88.7955C195.825 88.7774 195.811 88.7559 195.801 88.7321C195.791 88.7084 195.786 88.683 195.786 88.6573C195.786 88.6316 195.791 88.6061 195.801 88.5824C195.811 88.5587 195.825 88.5371 195.843 88.519C195.862 88.5009 195.883 88.4866 195.907 88.4769C195.931 88.4672 195.956 88.4623 195.982 88.4624H264.178C264.229 88.4628 264.279 88.4834 264.315 88.52C264.351 88.5565 264.371 88.6058 264.371 88.6573C264.371 88.7087 264.351 88.7581 264.315 88.7946C264.279 88.8311 264.229 88.8518 264.178 88.8521Z" fill="#CCCCCC"/>
<path d="M264.178 93.5284H195.982C195.956 93.5286 195.931 93.5237 195.907 93.514C195.883 93.5042 195.862 93.4899 195.843 93.4718C195.825 93.4537 195.811 93.4321 195.801 93.4084C195.791 93.3847 195.786 93.3592 195.786 93.3335C195.786 93.3078 195.791 93.2824 195.801 93.2587C195.811 93.235 195.825 93.2134 195.843 93.1953C195.862 93.1772 195.883 93.1629 195.907 93.1531C195.931 93.1434 195.956 93.1385 195.982 93.1387H264.178C264.229 93.1391 264.279 93.1597 264.315 93.1962C264.351 93.2328 264.371 93.2821 264.371 93.3335C264.371 93.385 264.351 93.4343 264.315 93.4708C264.279 93.5073 264.229 93.528 264.178 93.5284Z" fill="#CCCCCC"/>
<path d="M264.178 98.2046H195.982C195.956 98.2048 195.931 98.1999 195.907 98.1902C195.883 98.1805 195.862 98.1662 195.843 98.1481C195.825 98.13 195.811 98.1084 195.801 98.0847C195.791 98.0609 195.786 98.0355 195.786 98.0098C195.786 97.9841 195.791 97.9586 195.801 97.9349C195.811 97.9112 195.825 97.8897 195.843 97.8716C195.862 97.8535 195.883 97.8391 195.907 97.8294C195.931 97.8197 195.956 97.8148 195.982 97.8149H264.178C264.229 97.8153 264.279 97.836 264.315 97.8725C264.351 97.909 264.371 97.9583 264.371 98.0098C264.371 98.0612 264.351 98.1106 264.315 98.1471C264.279 98.1836 264.229 98.2043 264.178 98.2046Z" fill="#CCCCCC"/>
<path d="M252.215 51.6439V76.9738H188.754C187.054 77.0329 185.359 76.7492 183.771 76.1393C182.183 75.5295 180.733 74.6061 179.51 73.4242C178.286 72.2423 177.313 70.8261 176.648 69.2601C175.983 67.694 175.641 66.0101 175.641 64.3088C175.641 62.6075 175.983 60.9237 176.648 59.3576C177.313 57.7915 178.286 56.3753 179.51 55.1935C180.733 54.0116 182.183 53.0882 183.771 52.4783C185.359 51.8685 187.054 51.5847 188.754 51.6439H252.215Z" fill="#F2F2F2"/>
<path d="M253.774 76.7789C253.774 77.0373 253.671 77.285 253.488 77.4677C253.306 77.6504 253.058 77.7531 252.799 77.7532H187.624C185.871 77.7532 184.135 77.4079 182.516 76.7372C180.897 76.0664 179.425 75.0833 178.186 73.8439C176.947 72.6046 175.963 71.1332 175.293 69.5139C174.622 67.8946 174.277 66.159 174.277 64.4062C174.277 62.6535 174.622 60.9179 175.293 59.2986C175.963 57.6793 176.947 56.2079 178.186 54.9685C179.425 53.7292 180.897 52.746 182.516 52.0753C184.135 51.4045 185.871 51.0593 187.624 51.0593H252.799C253.058 51.0593 253.306 51.162 253.488 51.3447C253.671 51.5274 253.774 51.7752 253.774 52.0336C253.774 52.2919 253.671 52.5397 253.488 52.7224C253.306 52.9051 253.058 53.0078 252.799 53.0078H187.624C184.602 53.0105 181.706 54.2126 179.57 56.3499C177.435 58.4873 176.235 61.385 176.235 64.4062C176.235 67.4275 177.435 70.3252 179.57 72.4625C181.706 74.5999 184.602 75.802 187.624 75.8047H252.799C253.058 75.8048 253.306 75.9075 253.488 76.0902C253.671 76.2728 253.774 76.5206 253.774 76.7789Z" fill="#3F3D56"/>
<path d="M252.215 57.4892H184.019C183.993 57.4894 183.968 57.4845 183.944 57.4748C183.92 57.465 183.899 57.4507 183.88 57.4326C183.862 57.4145 183.848 57.393 183.838 57.3692C183.828 57.3455 183.823 57.3201 183.823 57.2944C183.823 57.2687 183.828 57.2432 183.838 57.2195C183.848 57.1958 183.862 57.1742 183.88 57.1561C183.899 57.138 183.92 57.1237 183.944 57.114C183.968 57.1043 183.993 57.0993 184.019 57.0995H252.215C252.266 57.0999 252.316 57.1205 252.352 57.157C252.388 57.1936 252.408 57.2429 252.408 57.2944C252.408 57.3458 252.388 57.3952 252.352 57.4317C252.316 57.4682 252.266 57.4889 252.215 57.4892Z" fill="#CCCCCC"/>
<path d="M252.215 62.1655H184.019C183.993 62.1657 183.968 62.1608 183.944 62.1511C183.92 62.1413 183.899 62.127 183.88 62.1089C183.862 62.0908 183.848 62.0693 183.838 62.0455C183.828 62.0218 183.823 61.9964 183.823 61.9707C183.823 61.945 183.828 61.9195 183.838 61.8958C183.848 61.8721 183.862 61.8505 183.88 61.8324C183.899 61.8143 183.92 61.8 183.944 61.7903C183.968 61.7806 183.993 61.7757 184.019 61.7758H252.215C252.266 61.7762 252.316 61.7968 252.352 61.8334C252.388 61.8699 252.408 61.9192 252.408 61.9707C252.408 62.0221 252.388 62.0715 252.352 62.108C252.316 62.1445 252.266 62.1652 252.215 62.1655Z" fill="#CCCCCC"/>
<path d="M252.215 66.8418H184.019C183.993 66.842 183.968 66.8371 183.944 66.8274C183.92 66.8177 183.899 66.8033 183.88 66.7852C183.862 66.7671 183.848 66.7456 183.838 66.7218C183.828 66.6981 183.823 66.6727 183.823 66.647C183.823 66.6213 183.828 66.5958 183.838 66.5721C183.848 66.5484 183.862 66.5268 183.88 66.5087C183.899 66.4906 183.92 66.4763 183.944 66.4666C183.968 66.4568 183.993 66.4519 184.019 66.4521H252.215C252.266 66.4525 252.316 66.4732 252.352 66.5097C252.388 66.5462 252.408 66.5955 252.408 66.647C252.408 66.6984 252.388 66.7478 252.352 66.7843C252.316 66.8208 252.266 66.8415 252.215 66.8418Z" fill="#CCCCCC"/>
<path d="M252.215 71.5181H184.019C183.993 71.5182 183.968 71.5133 183.944 71.5036C183.92 71.4939 183.899 71.4796 183.88 71.4615C183.862 71.4434 183.848 71.4218 183.838 71.3981C183.828 71.3744 183.823 71.3489 183.823 71.3232C183.823 71.2975 183.828 71.2721 183.838 71.2484C183.848 71.2246 183.862 71.2031 183.88 71.185C183.899 71.1669 183.92 71.1525 183.944 71.1428C183.968 71.1331 183.993 71.1282 184.019 71.1284H252.215C252.266 71.1287 252.316 71.1494 252.352 71.1859C252.388 71.2224 252.408 71.2718 252.408 71.3232C252.408 71.3747 252.388 71.424 252.352 71.4605C252.316 71.497 252.266 71.5177 252.215 71.5181Z" fill="#CCCCCC"/>
<path d="M326.039 193.695V171.609C326.039 170.633 325.651 169.697 324.961 169.006C324.271 168.316 323.335 167.928 322.358 167.928H238.618C237.642 167.928 236.705 168.316 236.015 169.006C235.325 169.697 234.937 170.633 234.937 171.609V193.695H326.039Z" fill="#CCCCCC"/>
<path d="M326.039 201.977H234.937V230.504H326.039V201.977Z" fill="#CCCCCC"/>
<path d="M234.937 238.786V260.871C234.937 261.847 235.325 262.784 236.015 263.474C236.705 264.164 237.642 264.552 238.618 264.552H322.358C323.335 264.552 324.271 264.164 324.961 263.474C325.651 262.784 326.039 261.847 326.039 260.871V238.786H234.937Z" fill="#CCCCCC"/>
<path d="M280.028 184.492C281.553 184.492 282.789 183.256 282.789 181.732C282.789 180.207 281.553 178.971 280.028 178.971C278.503 178.971 277.267 180.207 277.267 181.732C277.267 183.256 278.503 184.492 280.028 184.492Z" fill="white"/>
<path d="M280.028 221.301C281.553 221.301 282.789 220.065 282.789 218.541C282.789 217.016 281.553 215.78 280.028 215.78C278.503 215.78 277.267 217.016 277.267 218.541C277.267 220.065 278.503 221.301 280.028 221.301Z" fill="white"/>
<path d="M280.176 257.331C281.701 257.331 282.937 256.095 282.937 254.57C282.937 253.046 281.701 251.81 280.176 251.81C278.651 251.81 277.415 253.046 277.415 254.57C277.415 256.095 278.651 257.331 280.176 257.331Z" fill="white"/>
<path d="M315.711 142.746V168.076H252.25C250.549 168.135 248.855 167.852 247.266 167.242C245.678 166.632 244.229 165.709 243.005 164.527C241.781 163.345 240.808 161.929 240.144 160.363C239.479 158.796 239.136 157.113 239.136 155.411C239.136 153.71 239.479 152.026 240.144 150.46C240.808 148.894 241.781 147.478 243.005 146.296C244.229 145.114 245.678 144.191 247.266 143.581C248.855 142.971 250.549 142.687 252.25 142.746H315.711Z" fill="#F2F2F2"/>
<path d="M317.269 167.881C317.269 168.14 317.167 168.388 316.984 168.57C316.801 168.753 316.553 168.856 316.295 168.856H251.119C249.366 168.857 247.629 168.513 246.008 167.843C244.388 167.173 242.915 166.19 241.674 164.95C240.434 163.711 239.45 162.239 238.778 160.619C238.107 158.999 237.761 157.262 237.761 155.509C237.761 153.755 238.107 152.019 238.778 150.399C239.45 148.778 240.434 147.307 241.674 146.067C242.915 144.828 244.388 143.845 246.008 143.175C247.629 142.505 249.366 142.16 251.119 142.162H316.295C316.554 142.162 316.801 142.264 316.984 142.447C317.167 142.63 317.269 142.878 317.269 143.136C317.269 143.394 317.167 143.642 316.984 143.825C316.801 144.008 316.554 144.11 316.295 144.11H251.119C248.098 144.113 245.201 145.315 243.066 147.452C240.931 149.59 239.731 152.487 239.731 155.509C239.731 158.53 240.931 161.428 243.066 163.565C245.201 165.702 248.098 166.904 251.119 166.907H316.295C316.553 166.907 316.801 167.01 316.984 167.193C317.167 167.375 317.269 167.623 317.269 167.881Z" fill="#3F3D56"/>
<path d="M315.711 148.592H247.515C247.489 148.592 247.463 148.587 247.44 148.577C247.416 148.568 247.394 148.553 247.376 148.535C247.358 148.517 247.343 148.495 247.333 148.472C247.324 148.448 247.318 148.423 247.318 148.397C247.318 148.371 247.324 148.346 247.333 148.322C247.343 148.298 247.358 148.277 247.376 148.259C247.394 148.24 247.416 148.226 247.44 148.216C247.463 148.207 247.489 148.202 247.515 148.202H315.711C315.762 148.202 315.811 148.223 315.847 148.26C315.884 148.296 315.904 148.345 315.904 148.397C315.904 148.448 315.884 148.498 315.847 148.534C315.811 148.571 315.762 148.591 315.711 148.592Z" fill="#CCCCCC"/>
<path d="M315.711 153.268H247.515C247.489 153.268 247.463 153.263 247.44 153.254C247.416 153.244 247.394 153.229 247.376 153.211C247.358 153.193 247.343 153.172 247.333 153.148C247.324 153.124 247.318 153.099 247.318 153.073C247.318 153.047 247.324 153.022 247.333 152.998C247.343 152.975 247.358 152.953 247.376 152.935C247.394 152.917 247.416 152.902 247.44 152.893C247.463 152.883 247.489 152.878 247.515 152.878H315.711C315.762 152.879 315.811 152.899 315.847 152.936C315.884 152.972 315.904 153.022 315.904 153.073C315.904 153.125 315.884 153.174 315.847 153.21C315.811 153.247 315.762 153.268 315.711 153.268Z" fill="#CCCCCC"/>
<path d="M315.711 157.944H247.515C247.489 157.944 247.463 157.94 247.44 157.93C247.416 157.92 247.394 157.906 247.376 157.888C247.358 157.87 247.343 157.848 247.333 157.824C247.324 157.801 247.318 157.775 247.318 157.749C247.318 157.724 247.324 157.698 247.333 157.675C247.343 157.651 247.358 157.629 247.376 157.611C247.394 157.593 247.416 157.579 247.44 157.569C247.463 157.559 247.489 157.554 247.515 157.555H315.711C315.762 157.555 315.811 157.576 315.847 157.612C315.884 157.649 315.904 157.698 315.904 157.749C315.904 157.801 315.884 157.85 315.847 157.887C315.811 157.923 315.762 157.944 315.711 157.944Z" fill="#CCCCCC"/>
<path d="M315.711 162.621H247.515C247.489 162.621 247.463 162.616 247.44 162.606C247.416 162.596 247.394 162.582 247.376 162.564C247.358 162.546 247.343 162.524 247.333 162.501C247.324 162.477 247.318 162.451 247.318 162.426C247.318 162.4 247.324 162.375 247.333 162.351C247.343 162.327 247.358 162.306 247.376 162.287C247.394 162.269 247.416 162.255 247.44 162.245C247.463 162.236 247.489 162.231 247.515 162.231H315.711C315.762 162.231 315.811 162.252 315.847 162.288C315.884 162.325 315.904 162.374 315.904 162.426C315.904 162.477 315.884 162.527 315.847 162.563C315.811 162.6 315.762 162.62 315.711 162.621Z" fill="#CCCCCC"/>
<path d="M465.233 97.0707H436.319C436.045 97.0705 435.774 97.1335 435.528 97.2548L428.23 100.908C427.99 101.01 427.785 101.181 427.641 101.398C427.497 101.616 427.421 101.871 427.421 102.132C427.421 102.393 427.497 102.648 427.641 102.866C427.785 103.083 427.99 103.254 428.23 103.356L435.528 107.009C435.774 107.13 436.045 107.193 436.319 107.193H465.233C465.631 107.216 466.023 107.081 466.322 106.818C466.622 106.554 466.806 106.183 466.834 105.785V98.4787C466.806 98.0806 466.622 97.7096 466.322 97.446C466.023 97.1825 465.631 97.0477 465.233 97.0707Z" fill="#3F3D56"/>
<path d="M466.834 98.4787V105.785C466.806 106.183 466.622 106.554 466.322 106.818C466.023 107.081 465.631 107.216 465.233 107.193H459.472V97.0707H465.233C465.631 97.0476 466.023 97.1825 466.322 97.446C466.622 97.7095 466.806 98.0806 466.834 98.4787Z" fill="#08476F"/>
<path d="M465.015 42.409C466.325 41.8438 467.739 41.5618 469.165 41.5813C470.591 41.6007 471.998 41.9214 473.291 42.5221C474.585 43.1229 475.737 43.9902 476.672 45.0672C477.607 46.1443 478.304 47.4068 478.718 48.772C478.846 49.2048 478.945 49.6461 479.012 50.0925L519.445 70.1426L528.802 63.9416L540.445 77.345L526.158 88.9489C524.439 90.3335 522.321 91.1272 520.116 91.2122C517.911 91.2972 515.737 90.6691 513.917 89.421L472.894 61.052C472.589 61.1815 472.277 61.2952 471.96 61.3926C470.595 61.8056 469.158 61.9254 467.743 61.7441C466.328 61.5629 464.967 61.0847 463.75 60.341C462.533 59.5972 461.486 58.6046 460.679 57.4282C459.872 56.2518 459.323 54.9182 459.068 53.5148C458.992 53.1074 458.942 52.6957 458.918 52.2821C458.804 50.2107 459.328 48.1541 460.418 46.389C461.508 44.6239 463.112 43.235 465.015 42.409Z" fill="#FFB8B8"/>
<path d="M549.229 165.856H505.049C505.049 167.126 459.517 168.157 459.517 168.157C458.802 168.695 458.15 169.312 457.575 169.997C455.845 172.06 454.9 174.667 454.906 177.359V179.2C454.907 182.25 456.119 185.175 458.276 187.332C460.433 189.489 463.358 190.701 466.409 190.702H549.229C552.279 190.7 555.203 189.487 557.36 187.33C559.517 185.174 560.729 182.25 560.732 179.2V177.359C560.728 174.31 559.515 171.386 557.358 169.23C555.202 167.074 552.279 165.861 549.229 165.856Z" fill="#3F3D56"/>
<path d="M501.172 267.545H513.135V190.246H501.172V267.545Z" fill="#3F3D56"/>
<path d="M467.123 267.124C467.123 268.417 485.251 267.624 507.613 267.624C529.975 267.624 548.103 268.417 548.103 267.124C548.103 265.832 529.975 255.582 507.613 255.582C485.251 255.582 467.123 265.832 467.123 267.124Z" fill="#3F3D56"/>
<path d="M477.923 258.064L466.642 258.063L461.274 228.803L477.924 228.804L477.923 258.064Z" fill="#FFB8B8"/>
<path d="M480.8 269L444.423 268.999V268.539C444.423 266.679 444.789 264.838 445.501 263.12C446.212 261.402 447.255 259.841 448.57 258.527C449.885 257.212 451.446 256.169 453.164 255.457C454.881 254.746 456.723 254.38 458.582 254.38H458.583L480.801 254.381L480.8 269Z" fill="#2F2E41"/>
<path d="M461.049 239.919L438.558 189.484C436.68 185.233 436.472 180.431 437.976 176.033C439.48 171.636 442.585 167.967 446.673 165.756L495.457 139.597L517.719 137.703L538.253 135.837L538.401 136.087C538.591 136.407 543.006 144.033 540.021 152.395C537.758 158.738 531.869 163.692 522.52 167.121C500.697 175.122 475.488 181.961 465.662 184.53C465.228 184.641 464.822 184.842 464.471 185.121C464.121 185.4 463.833 185.751 463.627 186.149C463.421 186.542 463.299 186.974 463.268 187.418C463.237 187.861 463.298 188.306 463.447 188.724L484.342 235.67C484.56 236.265 484.639 236.902 484.572 237.533C484.504 238.164 484.293 238.77 483.955 239.306C483.616 239.842 483.159 240.294 482.618 240.625C482.077 240.956 481.468 241.159 480.837 241.218L465.223 242.355C465.091 242.367 464.959 242.374 464.828 242.374C464.028 242.373 463.246 242.141 462.575 241.706C461.904 241.27 461.374 240.65 461.049 239.919Z" fill="#2F2E41"/>
<path d="M483.444 258.064L472.163 258.063L466.795 228.803L483.446 228.804L483.444 258.064Z" fill="#FFB8B8"/>
<path d="M486.321 269L449.944 268.999V268.539C449.944 266.679 450.31 264.838 451.022 263.12C451.734 261.402 452.777 259.841 454.091 258.527C455.406 257.212 456.967 256.169 458.685 255.457C460.403 254.746 462.244 254.38 464.103 254.38H464.104L486.322 254.381L486.321 269Z" fill="#2F2E41"/>
<path d="M467.491 242.68L444.999 192.244C443.122 187.994 442.914 183.191 444.418 178.794C445.922 174.397 449.027 170.728 453.114 168.517L501.899 142.357L524.16 140.464L544.695 138.597L544.843 138.848C545.032 139.168 549.447 146.794 546.463 155.156C544.199 161.499 538.311 166.453 528.961 169.881C507.139 177.883 481.929 184.722 472.104 187.29C471.67 187.401 471.264 187.603 470.913 187.882C470.562 188.161 470.275 188.511 470.069 188.91C469.863 189.303 469.74 189.735 469.709 190.178C469.678 190.622 469.739 191.067 469.888 191.485L490.784 238.43C491.002 239.026 491.08 239.663 491.013 240.294C490.946 240.924 490.735 241.531 490.396 242.067C490.058 242.603 489.6 243.054 489.06 243.386C488.519 243.717 487.91 243.92 487.278 243.979L471.665 245.115C471.533 245.128 471.401 245.134 471.269 245.134C470.47 245.134 469.687 244.902 469.017 244.466C468.346 244.031 467.816 243.41 467.491 242.68Z" fill="#2F2E41"/>
<path d="M456.28 88.6057C446.829 76.0342 439.358 62.0903 434.125 47.2583C433.822 46.3711 433.844 45.4051 434.186 44.5323C434.529 43.6595 435.17 42.9365 435.995 42.4921L468.337 25.1627C468.86 24.8802 469.441 24.7209 470.035 24.6968C470.629 24.6726 471.221 24.7844 471.765 25.0236C472.32 25.2645 472.812 25.6288 473.204 26.0887C473.597 26.5486 473.879 27.092 474.03 27.6775C477.794 41.9701 484.87 55.1759 494.685 66.2265C495.089 66.6762 495.385 67.2123 495.551 67.7938C495.716 68.3753 495.747 68.987 495.641 69.5821C495.538 70.1678 495.303 70.7224 494.954 71.2037C494.605 71.685 494.151 72.0803 493.626 72.3595L461.284 89.6888C460.457 90.13 459.5 90.2632 458.584 90.0649C457.667 89.8665 456.851 89.3494 456.28 88.6057Z" fill="#CCCCCC"/>
<path d="M458.487 86.9473C458.661 87.1644 458.906 87.314 459.178 87.3703C459.451 87.4266 459.734 87.386 459.98 87.2555L492.322 69.9258C492.479 69.844 492.615 69.7269 492.719 69.5836C492.823 69.4404 492.893 69.275 492.922 69.1004C492.956 68.916 492.947 68.7264 492.895 68.5463C492.843 68.3662 492.75 68.2006 492.623 68.0624C482.519 56.6863 475.235 43.0914 471.36 28.3776C471.315 28.1959 471.228 28.0269 471.107 27.884C470.986 27.7411 470.834 27.6282 470.662 27.5541C470.5 27.4816 470.323 27.4477 470.146 27.455C469.969 27.4624 469.796 27.5107 469.64 27.5963L437.299 44.9255C437.054 45.0579 436.863 45.2717 436.759 45.53C436.655 45.7882 436.644 46.0747 436.729 46.34C441.868 60.9066 449.205 74.6008 458.487 86.9473Z" fill="white"/>
<path d="M563.724 83.983L538.395 93.608L532.211 76.4305C531.39 74.1495 531.402 71.6517 532.244 69.3785C533.086 67.1053 534.705 65.203 536.814 64.0079C538.948 62.7988 541.443 62.3926 543.85 62.8625C546.257 63.3324 548.417 64.6474 549.939 66.5702L563.724 83.983Z" fill="#08476F"/>
<path d="M499.299 152.043C498.766 151.666 498.319 151.18 497.989 150.617C497.658 150.054 497.451 149.427 497.382 148.777C494.138 118.493 496.397 94.793 504.289 76.3234C505.679 73.1378 507.773 70.3086 510.413 68.0486C513.054 65.7886 516.172 64.1564 519.534 63.2748L540.009 62.2414L540.115 62.2926C544.735 64.5556 548.503 68.2473 550.86 72.8203C553.217 77.3933 554.038 82.6041 553.2 87.6802C546.615 105.039 541.1 123.112 545.306 137.691C545.482 138.301 545.533 138.939 545.457 139.569C545.38 140.199 545.178 140.807 544.86 141.357C544.553 141.888 544.14 142.35 543.647 142.716C543.154 143.081 542.591 143.342 541.993 143.482L502.995 152.758C502.364 152.909 501.708 152.923 501.07 152.799C500.433 152.676 499.829 152.418 499.299 152.043Z" fill="#08476F"/>
<path d="M533.176 54.594C545.658 54.594 555.778 44.4749 555.778 31.9923C555.778 19.5098 545.658 9.39061 533.176 9.39061C520.693 9.39061 510.574 19.5098 510.574 31.9923C510.574 44.4749 520.693 54.594 533.176 54.594Z" fill="#FFB8B8"/>
<path d="M470.46 49.8935L452.845 57.669C452.175 57.9639 451.416 57.981 450.733 57.7165C450.051 57.452 449.501 56.9276 449.205 56.2583L448.769 55.2714C448.474 54.6015 448.457 53.8419 448.722 53.1595C448.986 52.477 449.511 51.9273 450.18 51.631L467.795 43.8554C468.464 43.5606 469.224 43.5435 469.906 43.808C470.589 44.0725 471.139 44.5969 471.435 45.2661L471.871 46.2531C472.165 46.923 472.183 47.6826 471.918 48.365C471.654 49.0475 471.129 49.5972 470.46 49.8935Z" fill="#CCCCCC"/>
<path d="M476.902 61.8565L459.287 69.632C458.617 69.9268 457.857 69.9439 457.175 69.6794C456.493 69.415 455.943 68.8905 455.646 68.2213L455.211 67.2343C454.916 66.5644 454.899 65.8049 455.163 65.1224C455.428 64.4399 455.952 63.8902 456.622 63.5939L474.236 55.8184C474.906 55.5236 475.666 55.5065 476.348 55.771C477.031 56.0354 477.58 56.5598 477.877 57.2291L478.312 58.2161C478.607 58.886 478.624 59.6455 478.36 60.328C478.095 61.0105 477.571 61.5602 476.902 61.8565Z" fill="#CCCCCC"/>
<path d="M490.486 108.583L451.216 77.6026C450.903 77.7126 450.584 77.8065 450.262 77.8839C448.876 78.2081 447.437 78.2371 446.039 77.9689C444.641 77.7008 443.315 77.1415 442.148 76.3274C440.972 75.5128 439.984 74.4564 439.25 73.2291C438.516 72.0019 438.052 70.6319 437.89 69.2109C437.627 66.9393 438.139 64.6454 439.343 62.7014C440.547 60.7573 442.373 59.2772 444.524 58.5012C445.867 58.0196 447.296 57.8271 448.718 57.9363C450.14 58.0455 451.523 58.4539 452.777 59.1348C454.03 59.8157 455.125 60.7537 455.991 61.8874C456.857 63.0211 457.473 64.3249 457.8 65.7134C457.901 66.1534 457.971 66.5999 458.01 67.0497L497.103 89.602L506.831 84.0011L517.608 98.11L502.503 108.876C500.735 110.126 498.611 110.772 496.446 110.72C494.281 110.667 492.191 109.918 490.486 108.583Z" fill="#FFB8B8"/>
<path d="M522.4 102.504L499.994 87.2672L510.524 72.3533C511.922 70.3729 513.975 68.9506 516.321 68.3376C518.666 67.7247 521.153 67.9606 523.341 69.0037C525.555 70.0588 527.318 71.8708 528.313 74.1123C529.308 76.3538 529.468 78.8772 528.765 81.2267L522.4 102.504Z" fill="#08476F"/>
<path d="M524.889 28.626C519.08 32.6018 511.453 36.6888 505.52 32.4548C501.624 29.6747 500.396 24.5266 501.976 20.0088C504.817 11.8846 512.623 8.30788 520.087 5.56627C529.79 2.00218 540.355 -0.833203 550.372 1.71922C560.389 4.27165 569.242 13.9701 567.434 24.1478C565.98 32.3326 558.259 39.1429 559.355 47.3832C560.458 55.6764 569.785 60.0417 578.019 61.5239C586.253 63.0061 595.467 63.4824 601.384 69.3966C608.933 76.9414 607.048 90.4268 599.945 98.3926C592.842 106.358 582.123 109.969 571.736 112.424C557.975 115.676 543.09 117.385 530.02 111.988C516.95 106.59 506.78 92.0609 510.566 78.4366C512.165 72.6817 515.932 67.818 519.573 63.083C523.214 58.3481 526.901 53.3967 528.29 47.5875C529.448 42.7464 528.591 37.1257 525.381 33.4943C524.797 32.8587 524.429 32.0544 524.331 31.1969C524.233 30.3394 524.409 29.4729 524.834 28.7216L524.889 28.626Z" fill="#2F2E41"/>
<path d="M100.371 138.44C94.5472 140.487 88.294 141 82.2143 139.929C76.1346 138.858 70.4331 136.239 65.6592 132.325C53.5011 122.121 49.6892 105.309 46.5876 89.7416C43.5296 74.3936 40.4716 59.0455 37.4136 43.6975L56.6203 56.9225C70.4326 66.4331 84.556 76.2484 94.1196 90.0241C103.683 103.8 107.858 122.605 100.174 137.511" fill="#E6E6E6"/>
<path d="M98.7294 194.186C100.673 180.026 102.672 165.684 101.309 151.372C100.098 138.662 96.2199 126.247 88.3253 116.068C84.1349 110.676 79.0359 106.055 73.2577 102.415C71.7509 101.464 70.3641 103.852 71.8643 104.798C81.8623 111.117 89.5954 120.448 93.9487 131.445C98.7568 143.674 99.5289 157.005 98.7004 169.996C98.1993 177.852 97.1374 185.657 96.0673 193.452C95.9829 193.804 96.0355 194.176 96.2145 194.491C96.3935 194.806 96.6854 195.042 97.0314 195.15C97.3843 195.245 97.7605 195.197 98.0784 195.017C98.3962 194.836 98.6302 194.538 98.7294 194.186Z" fill="#F2F2F2"/>
<path d="M80.0055 169.129C77.5076 172.926 74.0742 176.015 70.036 178.099C65.9978 180.183 61.4908 181.192 56.9494 181.029C45.278 180.475 35.5478 172.329 26.7888 164.596L0.881416 141.721L18.0278 140.901C30.3585 140.311 43.0073 139.76 54.7519 143.563C66.4964 147.365 77.3279 156.517 79.4754 168.673" fill="#E6E6E6"/>
<path d="M104.223 202.326C94.8665 185.77 84.0137 167.37 64.6214 161.489C59.2294 159.859 53.5756 159.275 47.9644 159.769C46.1959 159.921 46.6375 162.647 48.4028 162.495C57.8084 161.714 67.1959 164.198 74.9849 169.528C82.48 174.63 88.3158 181.722 93.2552 189.244C96.2807 193.851 98.9907 198.654 101.701 203.45C102.568 204.983 105.1 203.876 104.223 202.326Z" fill="#F2F2F2"/>
<path d="M119.215 219.752C118.9 216.099 117.588 212.603 115.423 209.644C113.258 206.684 110.323 204.376 106.937 202.97V193.399H90.8836V203.272C87.6641 204.747 84.8933 207.049 82.8538 209.945C80.8143 212.84 79.579 216.224 79.2738 219.752L75.499 263.632H122.99L119.215 219.752Z" fill="#F2F2F2"/>
</svg>
