<svg width="32" height="32" viewBox="0 0 32 32" fill="none" xmlns="http://www.w3.org/2000/svg">
<path d="M4 16H5.33333M16 4V5.33333M26.6667 16H28M7.46667 7.46667L8.4 8.4M24.5333 7.46667L23.6 8.4" stroke="white" stroke-width="2.5" stroke-linecap="round" stroke-linejoin="round"/>
<path d="M11.9999 21.3333C10.8805 20.4938 10.0537 19.3233 9.63649 17.9878C9.21929 16.6522 9.23289 15.2192 9.67536 13.8918C10.1178 12.5644 10.9667 11.4098 12.1018 10.5917C13.237 9.77356 14.6007 9.33331 15.9999 9.33331C17.3991 9.33331 18.7629 9.77356 19.898 10.5917C21.0331 11.4098 21.882 12.5644 22.3245 13.8918C22.7669 15.2192 22.7805 16.6522 22.3633 17.9878C21.9461 19.3233 21.1193 20.4938 19.9999 21.3333C19.4793 21.8486 19.0874 22.4792 18.8557 23.1741C18.6241 23.869 18.5593 24.6087 18.6666 25.3333C18.6666 26.0406 18.3856 26.7188 17.8855 27.2189C17.3854 27.719 16.7072 28 15.9999 28C15.2927 28 14.6144 27.719 14.1143 27.2189C13.6142 26.7188 13.3333 26.0406 13.3333 25.3333C13.4405 24.6087 13.3757 23.869 13.1441 23.1741C12.9125 22.4792 12.5205 21.8486 11.9999 21.3333Z" stroke="white" stroke-width="2.5" stroke-linecap="round" stroke-linejoin="round"/>
<path d="M12.9333 22.6667H19.0667" stroke="white" stroke-width="2.5" stroke-linecap="round" stroke-linejoin="round"/>
</svg>
