<svg xmlns="http://www.w3.org/2000/svg" id="Layer_1" data-name="Layer 1" viewBox="0 0 1143.691 745.492"><path d="M1064.789,745.492a78.9,78.9,0,0,0,78.823-82.393c-2.6-58.711-32.618-141.612-150.954-224.46C848.352,337.609,913.438,46.725,606.826,66.8S329.448,301.836,141.442,400.364C21.767,463.083.008,585.8,0,666.716a78.85,78.85,0,0,0,78.9,78.776Z" fill="#f3f5fd"></path><path d="M175.076,295.409c-.153-14.869,7.723-26.083,15.691-31.142,7.862-4.992,30.515-9.337,39.862,8.784,6.1,11.825,3.692,16.052,5.42,34.991s8.366,20.927,15.1,43.883c5.28,18.007-24.3,27.566-49.911,26.74s-41.851-6.5-43.337-22.787C155.765,332.5,175.377,324.547,175.076,295.409Z" fill="#0f1011"></path><path d="M218.576,331.01l-28.24,3.509s4.56-2.47,5.78-13.189c.37-1.68.74-3.6,1.1-5.72.35-2.05.68-4.3.95-6.7l13.89-2.71S210.436,325.09,218.576,331.01Z" fill="#E98862"></path><g opacity="0.15"><path d="M215.266,327.1,201.9,317.065l10.423-.2A28.737,28.737,0,0,0,215.266,327.1Z"></path></g><path d="M186.973,301.227c1.164,6.378,4.706,12.4,10.36,14.407a40.509,40.509,0,0,0,19.38,2.438c17.476-1.6,13.652-41.329,5.278-48.977s-32.7-2.533-35.543,10.413C184.976,286.2,185.864,295.156,186.973,301.227Z" fill="#E98862"></path><g><circle cx="211.932" cy="294.628" r="1.449" fill="#0f1011"></circle><circle cx="223.354" cy="293.585" r="1.449" fill="#0f1011"></circle><path d="M225.83,290.475h0l-3.839-.013a.681.681,0,0,1,0-1.361h0l3.839.012a.681.681,0,0,1,0,1.362Z" fill="#0f1011"></path><path d="M208.774,292.031a.681.681,0,0,1-.165-1.342l3.776-.945a.681.681,0,0,1,.331,1.321l-3.776.946A.724.724,0,0,1,208.774,292.031Z" fill="#0f1011"></path><path d="M212.707,306.033s5.353.515,9.09-.83c0,0,0,3.523-4.226,3.909S212.707,306.033,212.707,306.033Z" fill="#fff"></path></g><path d="M198.936,289.82c-.07-1.73-.19-3.48-.35-5.25l-3.35,5.83s1.42-.2,3.7-.58a122.8,122.8,0,0,1-.77,19.09c-.27,2.4-.6,4.65-.95,6.7-.36,2.12-.73,4.04-1.1,5.72-1.03,4.83-14.35-13.21-16.41-30.7-1.94-16.39,10.07-26.19,18.22-28.091,30.98-7.219,33.13,15.371,33.13,15.371C229.466,284.039,207.776,288.32,198.936,289.82Z" fill="#0f1011"></path><path d="M198.936,289.82c-2.28.38-3.7.58-3.7.58l3.35-5.83C198.746,286.34,198.866,288.09,198.936,289.82Z" fill="#0f1011"></path><path d="M204.673,300.939a6.143,6.143,0,0,1-12.235,1.117A6.042,6.042,0,0,1,198,295.38C202.374,295.2,204.365,297.561,204.673,300.939Z" fill="#E98862"></path><g opacity="0.15"><path d="M218.433,302.605a.5.5,0,0,1-.152-.977l2.939-.932-2.1-4.571a.5.5,0,1,1,.908-.418l2.34,5.086a.5.5,0,0,1-.3.685l-3.478,1.1A.467.467,0,0,1,218.433,302.605Z"></path></g><g><rect x="346.703" width="463.323" height="601.043" fill="#dee8f5"></rect><rect x="389.408" y="139.807" width="377.913" height="14.31" fill="#fff"></rect><rect x="389.408" y="352.044" width="377.913" height="14.31" fill="#fff"></rect><rect x="389.408" y="182.254" width="377.913" height="14.31" fill="#fff"></rect><rect x="389.408" y="224.702" width="377.913" height="14.31" fill="#fff"></rect><rect x="389.408" y="267.149" width="377.913" height="14.31" fill="#fff"></rect><rect x="389.408" y="309.596" width="377.913" height="14.31" fill="#fff"></rect><rect x="439.408" y="521.833" width="277.913" height="14.31" fill="#fff"></rect><rect x="389.408" y="394.491" width="377.913" height="14.31" fill="#fff"></rect><rect x="389.408" y="436.938" width="377.913" height="14.31" fill="#fff"></rect><rect x="389.408" y="479.386" width="377.913" height="14.31" fill="#fff"></rect><rect x="389.408" y="64.9" width="377.913" height="39.022" fill="#c1d8ed"></rect></g><g><path d="M332.624,414.72c2.9.68,12.96,1.42,13.076,4.046.07,1.575-7.568,1.627-7.568,1.627" fill="#E98862"></path><ellipse cx="340.076" cy="426.434" rx="7.813" ry="22.304" transform="translate(-152.678 660.293) rotate(-76.817)" fill="#E98862"></ellipse></g><g><path d="M143.043,470.1c0,2.98,1.574,12.943-.957,13.654-1.518.427-3.31-7-3.31-7" fill="#E98862"></path><path d="M131.1,468.532s-8.559,9.222-2.741,20.163c.807,1.517,8.672,2.407,8.672.549,0-7.805.606-13.918,5.743-12.049V464.632" fill="#E98862"></path></g><g><g><g><path d="M518.042,334.06s-7.733-4.1-6.006-25.156l-15.977-2.963s1.795,18.879-6.287,24.873Z" fill="#E98862"></path><path d="M521.1,300.739c-1.106,6.388-4.592,12.438-10.227,14.5-6.69,2.449-11.645,2.615-19.358,2.615-10.525,0-10.177-10.977-10.472-22.038-.3-11.106.586-23.019,4.746-26.889,8.3-7.724,32.673-2.832,35.637,10.088C522.959,285.7,522.153,294.658,521.1,300.739Z" fill="#E98862"></path></g><path d="M473.746,264.329c0-5.282,6.574-13.937,24.111-2l.018.011a49.9,49.9,0,0,1,13.529,1.479c8.02,2.4,18.076,9.123,15.5,25.426-1.537,9.71-4.281,16.053-7.188,20.695a28.013,28.013,0,0,1-6.787,7.355c-4.27,2.6-21.965,3.6-28.2-.38-4.559-2.911-5.32-15.069-3.6-15.069,1.19,0,1.288-.051,2.627-.051,2.446,0,2.69-14.567,3.151-21.011a8.34,8.34,0,0,0-1.134-.079C474.262,280.7,473.746,269.25,473.746,264.329Z" fill="#0f1011"></path><path d="M488.96,302.108a6.133,6.133,0,0,0,6.27-5.63,6.032,6.032,0,0,0-5.56-6.62C489.531,294.218,489.3,298.808,488.96,302.108Z" fill="#E98862"></path></g><path d="M449.359,734.673c-2.214-18.618-2.214-20.533-2.214-21.163h21c0-.063,0-.145,0-.245.075,1.555,1.133,11.035,2.072,18.928Z" fill="#E98862"></path><path d="M533.034,737.183s-.07-21.747-.07-23.673h21c0,1.92.07,23.605.07,23.605Z" fill="#E98862"></path><path d="M550.986,600.666c-2.027-31.379-5.56-84.016-7.252-114.905-.68-12.424-2.676-49.7-2.676-49.7l-75.2,1.169c-8.918,47.262-14.639,108.308-21.868,155.911-.507,44.11-.648,90.269-2.373,134.272l36.994.63c-.116-42.984.946-87.922,2.215-130.978,5.806-33.748,13.945-71.2,20.485-104.578,5.914,65.03,14.732,171.569,21.272,237.479l36.869-3.115Z" fill="#262626"></path><path d="M507.506,745.306a4.108,4.108,0,0,1-4.076-4.427h0a4.108,4.108,0,0,1,2.658-3.53l24.443-8.186a3.461,3.461,0,0,1,2.872.319,19.1,19.1,0,0,0,11.468,3.4,17.038,17.038,0,0,0,8.821-3.222,1.546,1.546,0,0,1,2.527,1.2v11.952a2.678,2.678,0,0,1-2.689,2.678Z" fill="#c1d8ed"></path><path d="M423.773,745.306a4.109,4.109,0,0,1-4.077-4.427h0a4.11,4.11,0,0,1,2.659-3.53l24.443-8.186a3.461,3.461,0,0,1,2.872.319,19.1,19.1,0,0,0,11.468,3.4,17.035,17.035,0,0,0,8.82-3.222,1.546,1.546,0,0,1,2.527,1.2v11.952a2.677,2.677,0,0,1-2.688,2.678Z" fill="#c1d8ed"></path><g><path d="M563.448,472.093c0,2.98-1.573,12.942.958,13.654,1.517.427,3.309-7,3.309-7" fill="#E98862"></path><path d="M575.4,470.528s8.264,20.114-1.162,31.669a1.888,1.888,0,0,1-3.346-1.081c-.458-7.791-2.029-23.794-7.166-21.925V466.628" fill="#E98862"></path></g><g><path d="M368.9,416.288c-2.907.656-12.972,2.314-13.109,4.94-.082,1.574,13.842,1.687,13.842,1.687" fill="#E98862"></path><path d="M383.659,423.906c.95,4.209-8.021,8.82-20.037,11.532s-22.527,2.5-23.477-1.711,8.021-9.82,20.037-12.532S382.709,419.7,383.659,423.906Z" fill="#E98862"></path></g><path d="M570.8,408.653a10.942,10.942,0,0,0-.552-2.162l-22.953-62.414-.138.05A20.151,20.151,0,0,0,542.132,336c-4.568-4.569-12.479-7.526-22.116-7.526-14.344,0-33.935.031-37.95.2-11.8.506-17.561,5.617-20.066,13.239l-34.962,56.4-60.289,17.234,5.771,20.192,64.191-18.35a10.508,10.508,0,0,0,6.039-4.563l19.929-32.152c.581,5.112,1.056,10.163,1.112,14.918.384,32.468-8.383,38.584-4.063,48.51,4.194,9.625,86.523,13.629,87.623-3.317.7-10.777-8.8-20.19-8.8-41.195a53.3,53.3,0,0,1,1.573-11.837l9.269,25.206,9.1,61.306,21.569-3.2Z" fill="#08476F"></path></g><g><path d="M257.081,734.673l-20.852-2.48c.938-7.893,2-17.373,2.072-18.928,0,.1,0,.182,0,.245h21C259.3,714.14,259.3,716.055,257.081,734.673Z" fill="#E98862"></path><path d="M173.406,737.183l-21-.068s.07-21.685.07-23.605h21C173.476,715.436,173.406,737.183,173.406,737.183Z" fill="#E98862"></path><path d="M264.829,727.412c-1.738-44.009-1.843-90.231-2.387-134.357-7.223-47.593-11.019-99.793-19.934-147.049l-.267.079-.782-5.33-76.077-4.695-2.676,49.7c-3.829,66.581-11.233,173.615-15.712,241.089l36.869,3.115c6.584-66.359,16.321-172.075,22.272-237.478,6.529,33.326,13.687,70.855,19.485,104.577,1.268,43.078,2.33,87.97,2.214,130.978Z" fill="#262626"></path><path d="M198.935,745.306a4.108,4.108,0,0,0,4.076-4.427h0a4.107,4.107,0,0,0-2.659-3.53l-24.442-8.186a3.463,3.463,0,0,0-2.873.319,19.1,19.1,0,0,1-11.467,3.4,17.035,17.035,0,0,1-8.821-3.222,1.546,1.546,0,0,0-2.527,1.2v11.952a2.677,2.677,0,0,0,2.689,2.678Z" fill="#c1d8ed"></path><path d="M282.668,745.306a4.108,4.108,0,0,0,4.076-4.427h0a4.108,4.108,0,0,0-2.658-3.53l-24.443-8.186a3.461,3.461,0,0,0-2.872.319,19.1,19.1,0,0,1-11.468,3.4,17.031,17.031,0,0,1-8.82-3.222,1.547,1.547,0,0,0-2.528,1.2v11.952a2.678,2.678,0,0,0,2.689,2.678Z" fill="#c1d8ed"></path><path d="M280.42,392.561l-37.238-55.648-.22.147c-3.2-4.881-8.7-8-17.774-8.387-.63-.03-1.639-.05-2.94-.07-.259,5.5-34.32,5.48-35.04-.13-9.619.01-17.51,2.96-22.08,7.53a20.147,20.147,0,0,0-4.772,7.467l-.121-.055-24.172,54.424a10.914,10.914,0,0,0-.841,2.972l-9.391,69.828,21.609,2.906,9.183-68.282,9.525-21.445a62.3,62.3,0,0,1,2.56,15.775c0,21.01-9.5,30.42-8.8,41.2,1.1,16.94,83.431,12.94,87.62,3.31,4.32-9.92-4.45-16.04-4.06-48.5a165.264,165.264,0,0,1,1.355-17.031l19.473,29.1a10.905,10.905,0,0,0,5.375,4.2l60.957,21.9L338,413.244Z" fill="#08476F"></path><path d="M222.248,328.6c-.26,5.5-3.25,13.59-12.48,14.2-12.3.81-21.84-8.72-22.56-14.33h.03C199.348,328.473,215.188,328.493,222.248,328.6Z" fill="#E98862"></path></g><path d="M184.741,498.772H157.7v-6.854a9.233,9.233,0,0,0-9.222-9.223H118.705a9.233,9.233,0,0,0-9.222,9.223v6.854H82.446a9.866,9.866,0,0,0-9.866,9.866V573.6a9.866,9.866,0,0,0,9.866,9.866h102.3a9.866,9.866,0,0,0,9.866-9.866V508.638A9.866,9.866,0,0,0,184.741,498.772Zm-69.258-6.854a3.225,3.225,0,0,1,3.222-3.223h29.777a3.225,3.225,0,0,1,3.222,3.223v6.854H115.483Z" fill="#B51A24"></path><g><path d="M1019.967,466.074c-3.41-1.116-6.91.139-10.259,2.683,4.411-11.137,6.231-21.2-1.309-21.649-5.276-.318-9.317,3.731-12.388,9.485-1.079-10.118-3.866-17.664-10.106-15.163-6.851,2.748-7.893,12.161-6.855,22.009-3.02-5.03-6.268-7.835-9.218-4.886-8.807,8.806,12.81,33.625,12.81,33.625h5.368l3.064,3.326c-.622,1.311-.96,2.092-.96,2.092l3.891,7.919S1034.122,470.706,1019.967,466.074Z" fill="#8ddbe0"></path><polygon points="1010.345 523.251 979.962 523.251 974.877 487.783 1015.431 487.783 1010.345 523.251" fill="#c1d8ed"></polygon></g><g><g><rect x="936.166" y="727.64" width="16.196" height="17.853" fill="#c1d8ed"></rect><rect x="1090.251" y="727.64" width="16.196" height="17.853" fill="#c1d8ed"></rect></g><rect x="1052.438" y="524.083" width="67.951" height="205.626" fill="#c1d8ed"></rect><rect x="866.373" y="528.637" width="69.586" height="199.002" fill="#c1d8ed"></rect><path d="M1057.015,729.709H861.8V524.083h195.219ZM870.95,720.555h176.911V533.237H870.95Z" fill="#dee8f5"></path><path d="M1057.015,729.709H861.8V616.34h195.219ZM870.95,720.555h176.911V625.494H870.95Z" fill="#dee8f5"></path><g><polygon points="950.294 549.548 950.294 562.642 950.294 616.265 1033.223 616.265 1033.223 562.642 1033.223 549.548 950.294 549.548" fill="#c1d8ed"></polygon><rect x="923.113" y="562.642" width="82.929" height="53.623" fill="#dee8f5"></rect><rect x="923.113" y="562.642" width="82.929" height="4.02" fill="#c1d8ed"></rect><rect x="923.113" y="549.548" width="82.929" height="13.094" transform="translate(1929.155 1112.19) rotate(180)" fill="#dee8f5"></rect><rect x="953.476" y="573.412" width="22.203" height="8.052" rx="1.911" fill="#fff"></rect></g><g><rect x="874.265" y="727.64" width="16.196" height="17.853" fill="#dee8f5"></rect><rect x="1028.35" y="727.64" width="16.196" height="17.853" fill="#dee8f5"></rect></g><g><rect x="935.964" y="700.14" width="90.158" height="20.415" fill="#c1d8ed"></rect><rect x="937.513" y="659.356" width="90.158" height="20.415" fill="#c1d8ed"></rect><g><rect x="900.014" y="700.14" width="95.343" height="20.415" fill="#dee8f5"></rect><g opacity="0.62"><rect x="982.947" y="700.14" width="4.628" height="20.415" fill="#c1d8ed"></rect></g><g opacity="0.62"><rect x="973.691" y="700.14" width="4.628" height="20.415" fill="#c1d8ed"></rect></g><circle cx="910.945" cy="710.347" r="6.584" fill="#f3f5fd"></circle></g><g><rect x="901.563" y="659.356" width="95.343" height="20.415" fill="#dee8f5"></rect><rect x="907.703" y="663.954" width="66.532" height="11.219" fill="#f3f5fd"></rect><g opacity="0.62"><rect x="980.366" y="659.356" width="8.757" height="20.415" fill="#c1d8ed"></rect></g></g><g><rect x="943.318" y="679.748" width="90.158" height="20.415" transform="translate(1976.794 1379.911) rotate(-180)" fill="#c1d8ed"></rect><g><rect x="907.368" y="679.748" width="95.343" height="20.415" transform="translate(1910.078 1379.911) rotate(-180)" fill="#f3f5fd"></rect><rect x="915.15" y="679.748" width="4.628" height="20.415" transform="translate(1834.929 1379.911) rotate(-180)" fill="#dee8f5"></rect><rect x="924.406" y="679.748" width="4.628" height="20.415" transform="translate(1853.44 1379.911) rotate(-180)" fill="#dee8f5"></rect><circle cx="991.78" cy="689.955" r="6.584" fill="#dee8f5"></circle></g><rect x="936.166" y="684.951" width="42.088" height="10.008" fill="#dee8f5"></rect></g></g></g></svg>